<svg xmlns="http://www.w3.org/2000/svg" width="13.625" height="13.44" viewBox="0 0 13.625 13.44">
  <metadata><?xpacket begin="﻿" id="W5M0MpCehiHzreSzNTczkc9d"?>
<x:xmpmeta xmlns:x="adobe:ns:meta/" x:xmptk="Adobe XMP Core 5.6-c138 79.159824, 2016/09/14-01:09:01        ">
   <rdf:RDF xmlns:rdf="http://www.w3.org/1999/02/22-rdf-syntax-ns#">
      <rdf:Description rdf:about=""/>
   </rdf:RDF>
</x:xmpmeta>
                                                                                                    
                                                                                                    
                                                                                                    
                                                                                                    
                                                                                                    
                                                                                                    
                                                                                                    
                                                                                                    
                                                                                                    
                                                                                                    
                                                                                                    
                                                                                                    
                                                                                                    
                                                                                                    
                                                                                                    
                                                                                                    
                                                                                                    
                                                                                                    
                                                                                                    
                                                                                                    
                           
<?xpacket end="w"?></metadata>
<defs>
    <style>
      .cls-1 {
        fill: #fff;
        fill-rule: evenodd;
      }
    </style>
  </defs>
  <path id="Mag_Glass" data-name="Mag Glass" class="cls-1" d="M319.731,1357.03a5.086,5.086,0,0,1,7.183,0,5.2,5.2,0,0,1-.108,7.28,4.913,4.913,0,0,1-7.075-.1A5.083,5.083,0,0,1,319.731,1357.03Zm1.283,1.28a3.266,3.266,0,1,1,0,4.62A3.274,3.274,0,0,1,321.014,1358.31ZM327,1364c0.542-.57.8-1.3,1-1l3.474,3.47a1.509,1.509,0,0,1-.082,2.07,1.4,1.4,0,0,1-1.986,0l-3.667-3.67C326.009,1365.21,326.556,1364.47,327,1364Z" transform="translate(-318.25 -1355.53)"/>
</svg>
